# xmcd
#
# Track frame offsets: 
#        150
#        12737
#        26007
#        38588
#        51698
#        64618
#        77478
#        89984
#        102571
#        115576
#        127645
#        140951
#        155476
#        169606
#        183278
#        194774
#        208842
#        222142
#        235916
#        249261
#        260609
#        273184
#        287123
#        299957
#        312493
#
# Disc length: 4347 seconds
#
# Revision: 2
# Processed by: cddbd v1.5.2PL0 Copyright (c) Steve Scherf et al.
# Submitted via: ExactAudioCopy v1.3
#
DISCID=8710f919
DTITLE=Blind Lemon Jefferson - The Rough Guide to Blues Legends: Blind
DTITLE=Lemon Jefferson [CD1]
DYEAR=2013
DGENRE=Blues
TTITLE0=One Dime Blues
TTITLE1=Easy Rider Blues
TTITLE2=Jack O'Diamonds (Take 2)
TTITLE3=Match Box Blues
TTITLE4=Beggin' Back
TTITLE5=Bad Luck Blues
TTITLE6=He Arose from the Dead
TTITLE7=Rambler Blues
TTITLE8=See That My Grave is Kept Clean
TTITLE9=That Crawlin' Baby Blues
TTITLE10=Hot Dogs
TTITLE11=All I Want is Pure Religion
TTITLE12=Corinna Blues (Take 2)
TTITLE13=Black Snake Moan
TTITLE14=Where Shall I Be
TTITLE15=Mosquito Moan
TTITLE16=Black Horse Blues
TTITLE17=Wartime Blues
TTITLE18=Rabbit Foot Blues
TTITLE19=Rising High Water Blues
TTITLE20=Prison Cell Blues
TTITLE21=I Want to Be Like Jesus in My Heart
TTITLE22=Dry Southern Blues
TTITLE23=Blind Lemon's Penitentiary Blues
TTITLE24=Broke and Hungry
EXTD=
EXTT0=
EXTT1=
EXTT2=
EXTT3=
EXTT4=
EXTT5=
EXTT6=
EXTT7=
EXTT8=
EXTT9=
EXTT10=
EXTT11=
EXTT12=
EXTT13=
EXTT14=
EXTT15=
EXTT16=
EXTT17=
EXTT18=
EXTT19=
EXTT20=
EXTT21=
EXTT22=
EXTT23=
EXTT24=
PLAYORDER=
